<?xml version="1.0" encoding="utf-8"?>
<svg version="1.2" baseProfile="tiny-ps" xmlns:xlink="http://www.w3.org/1999/xlink" viewBox="0 0 283.46 283.46" xmlns="http://www.w3.org/2000/svg">
  <title>EGOS! The Education Company</title>

<g>
	<path fill="#FFFFFF" d="M49.84,105.46c-2.13,0-6.48-0.55-6.48,2.83c0,3.94,3.94-0.44,4.31,8.05   c0.52,10.05,0.47,9.05-0.16,19.15c-0.36,5.88-3.89,3.44-3.89,6.49c0,0.72,0.05,2.39,3.47,2.39H68.4c1.76,0,3.22,0.17,4.36,0.28   c1.09,0.17,1.92,0.33,2.28,0.33c2.07,0,4.88-6.77,4.88-10.55c0-1.55-0.83-3.55-2.49-3.55c-4.25,0-1.25,7.83-11.88,7.83   c-5.45,0-5.96,0.39-5.96-7.71c0-1.78-0.05-3.88,2.13-3.88c5.24,0,2.02,5.83,5.24,5.83c3.11,0,3.48-6.66,3.48-8.94   c0-2.16-0.21-8.44-3.22-8.44c-3.68,0-0.73,6.16-4.67,6.16c-3.16,0-3.32-0.11-3.32-3.33c0-6.38-0.57-7.49,5.19-7.49   c9.85,0,6.54,5.33,10.63,5.33c2.02,0,2.7-2.16,2.7-4c0-2.44-1.24-7.88-4.2-7.88c-0.83,0-1.82,1.11-8.77,1.11H49.84L49.84,105.46z" />
	<path fill="#FFFFFF" d="M185.77,173.41v-8.31c0-0.46,0.09-1.69,0.64-2.17c0.5-0.44,0.71-0.46,1.42-0.46c1.51,0,1.83,1.15,1.83,2.39   v8.55h1.87v-9.38c0-2.91-1.94-3.2-3.15-3.2c-1.05,0-2.1,0.27-2.74,1.59c-0.43-1.12-1.64-1.59-2.69-1.59   c-1.35,0-2.33,0.46-2.88,1.78h-0.05v-1.54h-1.99c0.07,0.85,0.11,1.71,0.11,2.56v9.77h1.87v-8.31c0-0.46,0.09-1.2,0.43-1.81   c0.27-0.46,1.05-0.83,1.62-0.83c1.51,0,1.83,1.15,1.83,2.39v8.55H185.77L185.77,173.41z" />
	<polygon fill="#FFFFFF" points="229.68,161.08 227.52,161.08 231.42,173.41 230.12,178.08 232.06,178.08 237.28,161.08    235.25,161.08 232.49,171.12 232.45,171.12 229.68,161.08  " />
</g>
<g>
	<polygon fill="#004C2D" points="0,78.02 283.46,78.02 283.46,205.44 0,205.44 0,78.02  " />
	<path fill="#FFFFFF" d="M54.47,108.18c-2.32,0-7.09-0.6-7.09,3.05c0,4.25,4.31-0.48,4.71,8.67c0.57,10.82,0.51,9.75-0.17,20.63   c-0.4,6.34-4.25,3.71-4.25,7c0,0.78,0.06,2.57,3.8,2.57h23.3c1.93,0,3.51,0.18,4.76,0.3c1.19,0.18,2.1,0.36,2.49,0.36   c2.27,0,5.33-7.3,5.33-11.36c0-1.67-0.91-3.83-2.72-3.83c-4.65,0-1.36,8.43-12.98,8.43c-5.95,0-6.52,0.42-6.52-8.31   c0-1.91-0.06-4.19,2.32-4.19c5.73,0,2.21,6.28,5.73,6.28c3.4,0,3.8-7.18,3.8-9.63c0-2.33-0.23-9.09-3.51-9.09   c-4.03,0-0.79,6.64-5.1,6.64c-3.46,0-3.63-0.12-3.63-3.59c0-6.88-0.62-8.07,5.67-8.07c10.77,0,7.14,5.74,11.62,5.74   c2.21,0,2.95-2.33,2.95-4.31c0-2.63-1.36-8.49-4.59-8.49c-0.91,0-1.98,1.2-9.58,1.2H54.47L54.47,108.18z" />
	<path fill="#FFFFFF" d="M103.78,125.47c0-6.34,3.17-10.65,8.11-10.65c7.71,0,7.71,8.31,13.32,8.31c3.06,0,4.48-2.99,4.48-5.92   c0-3.05-2.1-9.15-5.61-9.15c-1.02,0-2.49,0.9-3.51,0.9c-1.47,0-4.2-1.61-9.18-1.61c-12.13,0-22.28,8.97-22.28,21.59   c0,13.22,10.49,22.01,22.51,22.01c8.05,0,16.04-4.19,18.25-12.92c0.4-1.55,0.51-1.85,1.98-2.03c1.36-0.24,2.61-1.32,2.61-2.87   c0-1.73-0.62-4.9-11.28-4.9c-2.89,0-11.45,0.3-11.45,4.66c0,5.5,5.95,0.66,5.95,5.62c0,2.15-1.47,3.71-3.46,3.71   C110.58,142.21,103.78,137.79,103.78,125.47L103.78,125.47z" />
	<path fill-rule="evenodd" fill="#FFFFFF" d="M157.63,150.94c11.56,0,22.34-8.49,22.34-21.35c0-7.71-6.01-22.25-21.66-22.25   c-12.36,0-21.94,8.97-21.94,21.65C136.37,141.73,145.67,150.94,157.63,150.94L157.63,150.94z M165.4,135.63   c0,3.23-1.47,6.4-4.93,6.4c-6.12,0-9.52-14.29-9.52-19.38c0-2.93,1.59-6.4,4.76-6.4C162.34,116.26,165.4,130.19,165.4,135.63   L165.4,135.63z" />
	<path fill="#FFFFFF" d="M189.03,131.86c6.29,5.32,14.06,4.25,14.06,8.55c0,2.27-3.12,2.93-4.36,2.93c-10.43,0-9.75-9.51-13.78-9.51   c-1.7,0-2.38,1.62-2.38,3.23c0,3.05,1.3,9.39,4.02,11c3.23,1.85,9.64,2.87,13.38,2.87c13.21,0,18.65-7.9,18.65-14.89   c0-4.49-1.76-7.48-5.27-9.93c-6.58-4.6-14.34-3.35-14.34-8.07c0-2.15,1.87-2.99,3.63-2.99c5.9,0,8.11,6.82,11.91,6.82   c2.1,0,3.34-2.03,3.34-4.07c0-5.02-4.31-9.45-6.24-9.45c-1.19,0-1.98,0.72-2.78,0.72c-0.85,0-4.93-1.73-8.56-1.73   c-11,0-16.67,7.71-16.67,13.93C183.64,125.59,185.91,129.23,189.03,131.86L189.03,131.86z" />
	<path fill-rule="evenodd" fill="#FFFFFF" d="M235.28,144.3c0-3.65-2.83-6.64-6.29-6.64c-3.46,0-6.29,2.99-6.29,6.64   c0,3.65,2.83,6.64,6.29,6.64C232.45,150.94,235.28,147.95,235.28,144.3L235.28,144.3z M235.79,116.49c0-4.43-1.98-9.15-6.8-9.15   c-4.82,0-6.8,4.72-6.8,9.15c0,3.71,1.3,8.19,2.89,11.48c0.51,1.14,2.49,5.02,3.91,5.02c1.42,0,3.4-3.89,3.91-5.02   C234.49,124.69,235.79,120.2,235.79,116.49L235.79,116.49z" />
	<path fill-rule="evenodd" fill="#FFFFFF" d="M240.94,105.1c-0.78,0.83-1.17,1.83-1.17,3c0,1.18,0.39,2.19,1.16,3.02   c0.78,0.83,1.73,1.25,2.84,1.25c1.11,0,2.06-0.42,2.84-1.25c0.78-0.83,1.17-1.84,1.17-3.02c0-1.17-0.39-2.17-1.17-3   c-0.78-0.83-1.73-1.25-2.84-1.25C242.67,103.85,241.72,104.27,240.94,105.1L240.94,105.1z M247.08,111.59   c-0.91,0.97-2.01,1.45-3.31,1.45c-1.29,0-2.39-0.48-3.3-1.45c-0.9-0.96-1.35-2.13-1.35-3.5c0-1.36,0.46-2.51,1.37-3.48   c0.91-0.96,2-1.44,3.29-1.44c1.29,0,2.4,0.48,3.31,1.44c0.91,0.96,1.37,2.12,1.37,3.48C248.45,109.46,247.99,110.63,247.08,111.59   L247.08,111.59z M244.65,106.23c-0.23-0.13-0.59-0.2-1.09-0.2h-0.77v1.96h0.81c0.38,0,0.67-0.04,0.86-0.12   c0.35-0.15,0.53-0.43,0.53-0.85C245,106.63,244.88,106.37,244.65,106.23L244.65,106.23z M243.69,105.38c0.64,0,1.1,0.07,1.4,0.19   c0.53,0.23,0.8,0.69,0.8,1.37c0,0.48-0.17,0.84-0.5,1.07c-0.18,0.12-0.43,0.21-0.74,0.26c0.4,0.07,0.7,0.24,0.88,0.53   c0.19,0.29,0.28,0.57,0.28,0.84v0.4c0,0.13,0,0.26,0.01,0.4c0.01,0.14,0.02,0.24,0.04,0.28l0.03,0.07h-0.85   c0-0.02-0.01-0.04-0.01-0.05c0-0.02-0.01-0.04-0.01-0.06L245,110.5v-0.43c0-0.63-0.16-1.04-0.48-1.24c-0.19-0.12-0.53-0.17-1-0.17   h-0.71v2.13h-0.9v-5.41H243.69L243.69,105.38z" />
	<path fill="#FFFFFF" d="M25.19,168.11v1.63h2.07v9.45c0,1.53,0.87,2.37,2.82,2.37c0.67,0,1.35-0.16,2.02-0.21v-1.66   c-0.45,0.05-0.77,0.1-0.92,0.1c-1.87,0-1.87-1.08-1.87-1.92v-8.13h2.74v-1.63h-2.74v-3.53l-2.05,0.97v2.55H25.19L25.19,168.11z" />
	<path fill="#FFFFFF" d="M42.85,181.4v-9.42c0-3-1.2-4.13-3.34-4.13c-1.65,0-2.59,0.42-3.42,1.97h-0.1v-7.42h-2.05v19h2.05v-7.82   c0-2.24,0.52-3.97,2.57-3.97c1.75,0,2.25,1.16,2.25,2.79v9H42.85L42.85,181.4z" />
	<path fill-rule="evenodd" fill="#FFFFFF" d="M48.45,173.82c0.03-3.68,1.1-4.34,2.39-4.34c1.5,0,2.52,0.47,2.52,4.34H48.45   L48.45,173.82z M55.53,175.45v-1.13c0-4.4-0.9-6.47-4.49-6.47c-4.37,0-4.79,3.21-4.79,7.1c0,5.87,2.12,6.71,4.79,6.71   c2.64,0,4.37-1.34,4.39-4.29h-2.24c-0.08,1.34-0.8,2.53-2.2,2.53c-1.6,0-2.54-0.74-2.54-4.45H55.53L55.53,175.45z" />
	<path fill-rule="evenodd" fill="#FFFFFF" d="M66.47,173.82c0.03-3.68,1.1-4.34,2.39-4.34c1.5,0,2.52,0.47,2.52,4.34H66.47   L66.47,173.82z M73.55,175.45v-1.13c0-4.4-0.9-6.47-4.49-6.47c-4.37,0-4.79,3.21-4.79,7.1c0,5.87,2.12,6.71,4.79,6.71   c2.64,0,4.37-1.34,4.39-4.29h-2.25c-0.07,1.34-0.8,2.53-2.19,2.53c-1.6,0-2.55-0.74-2.55-4.45H73.55L73.55,175.45z" />
	<path fill-rule="evenodd" fill="#FFFFFF" d="M83.61,174.22c0,2.68,0,5.69-2.29,5.69c-2.57,0-2.57-2.89-2.57-4.9   c0-3.55,0.3-5.39,2.49-5.39C83.51,169.61,83.61,172.45,83.61,174.22L83.61,174.22z M83.61,169.45h-0.08   c-0.7-1.05-1.57-1.61-2.77-1.61c-4.07,0-4.17,3.82-4.17,7.13c0,5.84,2.04,6.68,4.07,6.68c1.32,0,2.19-0.61,2.89-1.84h0.05v1.58   h2.05v-19h-2.05V169.45L83.61,169.45z" />
	<path fill="#FFFFFF" d="M96.17,176.93c0,2.21-1.37,3.08-2.47,3.08c-1.45,0-2.15-1.08-2.15-2.68v-9.21h-2.05v10.13   c0,2.26,1.2,3.42,3.39,3.42c1.32,0,2.52-0.66,3.19-1.87h0.07v1.61h2.17c-0.07-0.92-0.12-1.84-0.12-2.76v-10.53h-2.05V176.93   L96.17,176.93z" />
	<path fill="#FFFFFF" d="M110.62,172.37c0.12-2.97-1.35-4.53-3.87-4.53c-4.37,0-4.79,3.21-4.79,7.1c0,5.87,2.12,6.71,4.79,6.71   c1.4,0,4.04-0.95,3.97-4.69h-2.15c0.08,2.4-1.35,2.92-1.82,2.92c-2.12,0-2.64-1.55-2.64-5.87c0-3.63,1.07-4.42,2.64-4.42   c0.77,0,1.8,0.58,1.75,2.76H110.62L110.62,172.37z" />
	<path fill-rule="evenodd" fill="#FFFFFF" d="M120.83,174.8c0.2,4.29-1.35,5.11-2.59,5.11c-1.37,0-1.97-1.16-1.97-2.45   C116.27,174.64,118.88,174.82,120.83,174.8L120.83,174.8z M120.88,181.4h2.25c-0.15-1.03-0.25-2.11-0.25-3.16v-6.4   c0-2.24-0.85-4-4.09-4c-2.67,0-4.17,1.03-4.27,4h2.22c-0.12-1.39,0.6-2.37,1.97-2.37c2.2,0,2.17,1.92,2.12,3.69   c-2.87-0.08-6.61,0.1-6.61,4.13c0,2.55,0.77,4.37,3.44,4.37c1.57,0,2.54-0.66,3.17-2.18h0.05V181.4L120.88,181.4z" />
	<path fill="#FFFFFF" d="M125.03,168.11v1.63h2.07v9.45c0,1.53,0.87,2.37,2.82,2.37c0.67,0,1.35-0.16,2.02-0.21v-1.66   c-0.45,0.05-0.77,0.1-0.92,0.1c-1.87,0-1.87-1.08-1.87-1.92v-8.13h2.74v-1.63h-2.74v-3.53l-2.05,0.97v2.55H125.03L125.03,168.11z" />
	<path fill-rule="evenodd" fill="#FFFFFF" d="M135.81,168.11h-2.05v13.29h2.05V168.11L135.81,168.11z M133.64,164.72h2.29v-2.32   h-2.29V164.72L133.64,164.72z" />
	<path fill-rule="evenodd" fill="#FFFFFF" d="M143.79,179.9c-2.12,0-2.64-1.55-2.64-5.87c0-3.63,1.07-4.42,2.64-4.42   c1.57,0,2.64,0.79,2.64,4.42C146.43,178.35,145.91,179.9,143.79,179.9L143.79,179.9z M143.79,181.66c2.67,0,4.79-0.84,4.79-6.71   c0-3.89-0.42-7.1-4.79-7.1c-4.37,0-4.79,3.21-4.79,7.1C139,180.82,141.12,181.66,143.79,181.66L143.79,181.66z" />
	<path fill="#FFFFFF" d="M160.71,181.4v-9.21c0-2.63-0.67-4.34-3.37-4.34c-1.62,0-2.57,0.47-3.37,1.97h-0.1v-1.71h-2.17   c0.07,0.92,0.12,1.84,0.12,2.76v10.53h2.05v-7.87c0-1.82,0.32-3.92,2.57-3.92c1.75,0,2.22,1.16,2.22,2.58v9.21H160.71L160.71,181.4   z" />
	<path fill="#FFFFFF" d="M178.55,172.37c0.12-2.97-1.35-4.53-3.87-4.53c-4.36,0-4.79,3.21-4.79,7.1c0,5.87,2.12,6.71,4.79,6.71   c1.4,0,4.04-0.95,3.97-4.69h-2.14c0.08,2.4-1.35,2.92-1.82,2.92c-2.12,0-2.64-1.55-2.64-5.87c0-3.63,1.07-4.42,2.64-4.42   c0.77,0,1.8,0.58,1.75,2.76H178.55L178.55,172.37z" />
	<path fill-rule="evenodd" fill="#FFFFFF" d="M186.77,179.9c-2.12,0-2.64-1.55-2.64-5.87c0-3.63,1.07-4.42,2.64-4.42   c1.57,0,2.64,0.79,2.64,4.42C189.41,178.35,188.89,179.9,186.77,179.9L186.77,179.9z M186.77,181.66c2.67,0,4.79-0.84,4.79-6.71   c0-3.89-0.42-7.1-4.79-7.1c-4.36,0-4.79,3.21-4.79,7.1C181.98,180.82,184.1,181.66,186.77,181.66L186.77,181.66z" />
	<path fill="#FFFFFF" d="M203.04,181.4v-8.95c0-0.5,0.1-1.82,0.7-2.34c0.55-0.47,0.77-0.5,1.55-0.5c1.65,0,2,1.24,2,2.58v9.21h2.05   V171.3c0-3.13-2.12-3.45-3.44-3.45c-1.15,0-2.29,0.29-2.99,1.71c-0.47-1.21-1.8-1.71-2.94-1.71c-1.47,0-2.54,0.5-3.14,1.92h-0.05   v-1.66h-2.17c0.08,0.92,0.12,1.84,0.12,2.76v10.53h2.05v-8.95c0-0.5,0.1-1.29,0.47-1.95c0.3-0.5,1.15-0.89,1.77-0.89   c1.65,0,2,1.24,2,2.58v9.21H203.04L203.04,181.4z" />
	<path fill-rule="evenodd" fill="#FFFFFF" d="M217.42,179.9c-2.27,0-2.37-2.82-2.37-4.58c0-2.03-0.23-5.71,2.29-5.71   c2.57,0,2.57,2.92,2.57,4.92C219.91,178.09,219.61,179.9,217.42,179.9L217.42,179.9z M215.05,168.11H213v18.32h2.05v-6.37h0.07   c0.7,1.05,1.57,1.61,2.77,1.61c4.07,0,4.17-3.82,4.17-7.13c0-5.84-2.05-6.68-4.07-6.68c-1.32,0-2.2,0.61-2.89,1.84h-0.05V168.11   L215.05,168.11z" />
	<path fill-rule="evenodd" fill="#FFFFFF" d="M231.74,174.8c0.2,4.29-1.35,5.11-2.6,5.11c-1.37,0-1.97-1.16-1.97-2.45   C227.18,174.64,229.8,174.82,231.74,174.8L231.74,174.8z M231.79,181.4h2.24c-0.15-1.03-0.25-2.11-0.25-3.16v-6.4   c0-2.24-0.85-4-4.09-4c-2.67,0-4.17,1.03-4.27,4h2.22c-0.13-1.39,0.6-2.37,1.97-2.37c2.19,0,2.17,1.92,2.12,3.69   c-2.87-0.08-6.61,0.1-6.61,4.13c0,2.55,0.77,4.37,3.44,4.37c1.57,0,2.54-0.66,3.17-2.18h0.05V181.4L231.79,181.4z" />
	<path fill="#FFFFFF" d="M246.67,181.4v-9.21c0-2.63-0.67-4.34-3.37-4.34c-1.62,0-2.57,0.47-3.37,1.97h-0.1v-1.71h-2.17   c0.08,0.92,0.12,1.84,0.12,2.76v10.53h2.05v-7.87c0-1.82,0.32-3.92,2.57-3.92c1.75,0,2.22,1.16,2.22,2.58v9.21H246.67L246.67,181.4   z" />
	<polygon fill="#FFFFFF" points="251.04,168.11 248.67,168.11 252.94,181.4 251.51,186.43 253.64,186.43 259.35,168.11    257.13,168.11 254.11,178.93 254.06,178.93 251.04,168.11  " />
</g>
</svg>